<svg width="1440" height="1024" viewBox="0 0 1440 1024" fill="none" xmlns="http://www.w3.org/2000/svg">
<g clip-path="url(#clip0_17_151)">
<path d="M1440 0H0V1024H1440V0Z" fill="#B0C095"/>
<path d="M1440 870.4C1358.25 834.75 1276.65 799.289 1190.85 760.415C1105.2 721.541 1015.5 679.253 966.9 598.092C918.45 516.741 911.25 396.516 885.6 290.323C860.1 184.13 816.3 91.9704 772.5 0H1440V870.4Z" fill="#829461"/>
<path d="M1440 435.2C1399.2 417.375 1358.25 399.55 1315.5 380.207C1272.6 360.676 1227.75 339.627 1203.45 299.046C1179.3 258.465 1175.55 198.163 1162.8 145.067C1150.05 91.9704 1128.15 46.08 1106.25 0H1440V435.2Z" fill="#B0C095"/>
<path d="M0 183.941C90.3 182.803 180.6 181.665 263.55 219.781C346.35 258.086 421.65 335.455 473.1 425.908C524.4 516.551 551.85 620.279 576.45 722.11C601.2 823.941 623.1 924.065 645 1024H0V183.941Z" fill="#829461"/>
<path d="M0 603.97C45.15 603.401 90.3 602.833 131.7 621.985C173.1 640.948 210.9 679.633 236.55 724.954C262.2 770.276 275.85 822.044 288.3 873.055C300.6 924.065 311.55 973.938 322.5 1024H0V603.97Z" fill="#B0C095"/>
</g>
<defs>
<clipPath id="clip0_17_151">
<rect width="1440" height="1024" fill="white"/>
</clipPath>
</defs>
</svg>
