<svg width="1440" height="1023" viewBox="0 0 1440 1023" fill="none" xmlns="http://www.w3.org/2000/svg">
<g clip-path="url(#clip0_22_31)">
<path d="M1440 0H0V1024H1440V0Z" fill="#B0C095"/>
<path d="M0 489.813L34.4 508.075C68.8 526.165 137.6 562.688 206.08 568.832C274.72 575.147 342.88 551.253 411.52 550.059C480 549.035 548.8 570.539 617.28 584.021C685.92 597.333 754.08 602.453 822.72 597.333C891.2 592.213 960 576.853 1028.48 560.64C1097.12 544.427 1165.28 527.36 1233.92 516.779C1302.4 506.368 1371.2 502.272 1405.6 500.395L1440 498.347V1025.71H1405.6C1371.2 1025.71 1302.4 1025.71 1233.92 1025.71C1165.28 1025.71 1097.12 1025.71 1028.48 1025.71C960 1025.71 891.2 1025.71 822.72 1025.71C754.08 1025.71 685.92 1025.71 617.28 1025.71C548.8 1025.71 480 1025.71 411.52 1025.71C342.88 1025.71 274.72 1025.71 206.08 1025.71C137.6 1025.71 68.8 1025.71 34.4 1025.71H0V489.813Z" fill="#556B2F"/>
<path d="M0 500.053L34.4 527.36C68.8 554.667 137.6 609.28 206.08 631.467C274.72 653.653 342.88 643.413 411.52 629.419C480 615.595 548.8 597.845 617.28 572.075C685.92 546.133 754.08 512 822.72 502.272C891.2 492.715 960 507.392 1028.48 531.285C1097.12 555.179 1165.28 588.288 1233.92 589.141C1302.4 589.995 1371.2 558.592 1405.6 543.061L1440 527.36V1025.71H1405.6C1371.2 1025.71 1302.4 1025.71 1233.92 1025.71C1165.28 1025.71 1097.12 1025.71 1028.48 1025.71C960 1025.71 891.2 1025.71 822.72 1025.71C754.08 1025.71 685.92 1025.71 617.28 1025.71C548.8 1025.71 480 1025.71 411.52 1025.71C342.88 1025.71 274.72 1025.71 206.08 1025.71C137.6 1025.71 68.8 1025.71 34.4 1025.71H0V500.053Z" fill="#50642E"/>
<path d="M0 653.653L34.4 661.845C68.8 670.208 137.6 686.592 206.08 677.547C274.72 668.501 342.88 633.685 411.52 640.341C480 646.827 548.8 694.613 617.28 695.467C685.92 696.32 754.08 650.24 822.72 628.395C891.2 606.379 960 608.768 1028.48 619.008C1097.12 629.248 1165.28 647.339 1233.92 638.805C1302.4 630.272 1371.2 595.115 1405.6 577.365L1440 559.787V1025.71H1405.6C1371.2 1025.71 1302.4 1025.71 1233.92 1025.71C1165.28 1025.71 1097.12 1025.71 1028.48 1025.71C960 1025.71 891.2 1025.71 822.72 1025.71C754.08 1025.71 685.92 1025.71 617.28 1025.71C548.8 1025.71 480 1025.71 411.52 1025.71C342.88 1025.71 274.72 1025.71 206.08 1025.71C137.6 1025.71 68.8 1025.71 34.4 1025.71H0V653.653Z" fill="#4B5D2C"/>
<path d="M0 774.827L34.4 771.072C68.8 767.488 137.6 759.979 206.08 754.859C274.72 749.739 342.88 747.008 411.52 752.981C480 758.955 548.8 773.632 617.28 758.272C685.92 742.912 754.08 697.515 822.72 695.467C891.2 693.419 960 735.061 1028.48 741.547C1097.12 748.032 1165.28 719.701 1233.92 704C1302.4 688.299 1371.2 685.568 1405.6 684.032L1440 682.667V1025.71H1405.6C1371.2 1025.71 1302.4 1025.71 1233.92 1025.71C1165.28 1025.71 1097.12 1025.71 1028.48 1025.71C960 1025.71 891.2 1025.71 822.72 1025.71C754.08 1025.71 685.92 1025.71 617.28 1025.71C548.8 1025.71 480 1025.71 411.52 1025.71C342.88 1025.71 274.72 1025.71 206.08 1025.71C137.6 1025.71 68.8 1025.71 34.4 1025.71H0V774.827Z" fill="#46562B"/>
<path d="M0 766.293L34.4 769.365C68.8 772.608 137.6 778.752 206.08 784.213C274.72 789.675 342.88 794.112 411.52 791.893C480 789.675 548.8 780.459 617.28 774.827C685.92 769.195 754.08 766.805 822.72 782.165C891.2 797.525 960 830.635 1028.48 840.875C1097.12 851.115 1165.28 838.485 1233.92 825.515C1302.4 812.373 1371.2 798.72 1405.6 791.893L1440 785.067V1025.71H1405.6C1371.2 1025.71 1302.4 1025.71 1233.92 1025.71C1165.28 1025.71 1097.12 1025.71 1028.48 1025.71C960 1025.71 891.2 1025.71 822.72 1025.71C754.08 1025.71 685.92 1025.71 617.28 1025.71C548.8 1025.71 480 1025.71 411.52 1025.71C342.88 1025.71 274.72 1025.71 206.08 1025.71C137.6 1025.71 68.8 1025.71 34.4 1025.71H0V766.293Z" fill="#414F2A"/>
<path d="M0 844.8L34.4 846.848C68.8 848.725 137.6 852.821 206.08 845.312C274.72 837.973 342.88 819.2 411.52 814.933C480 810.667 548.8 820.907 617.28 820.395C685.92 819.712 754.08 808.448 822.72 818.347C891.2 828.245 960 859.648 1028.48 874.325C1097.12 889.173 1165.28 887.467 1233.92 879.445C1302.4 871.595 1371.2 857.259 1405.6 850.261L1440 843.093V1025.71H1405.6C1371.2 1025.71 1302.4 1025.71 1233.92 1025.71C1165.28 1025.71 1097.12 1025.71 1028.48 1025.71C960 1025.71 891.2 1025.71 822.72 1025.71C754.08 1025.71 685.92 1025.71 617.28 1025.71C548.8 1025.71 480 1025.71 411.52 1025.71C342.88 1025.71 274.72 1025.71 206.08 1025.71C137.6 1025.71 68.8 1025.71 34.4 1025.71H0V844.8Z" fill="#3C4828"/>
<path d="M0 930.133L34.4 938.667C68.8 947.2 137.6 964.267 206.08 962.901C274.72 961.365 342.88 941.568 411.52 935.253C480 928.939 548.8 936.448 617.28 935.765C685.92 935.253 754.08 926.72 822.72 930.475C891.2 934.059 960 950.101 1028.48 947.541C1097.12 944.981 1165.28 923.819 1233.92 910.848C1302.4 897.707 1371.2 892.587 1405.6 890.027L1440 887.467V1025.71H1405.6C1371.2 1025.71 1302.4 1025.71 1233.92 1025.71C1165.28 1025.71 1097.12 1025.71 1028.48 1025.71C960 1025.71 891.2 1025.71 822.72 1025.71C754.08 1025.71 685.92 1025.71 617.28 1025.71C548.8 1025.71 480 1025.71 411.52 1025.71C342.88 1025.71 274.72 1025.71 206.08 1025.71C137.6 1025.71 68.8 1025.71 34.4 1025.71H0V930.133Z" fill="#374127"/>
</g>
<defs>
<clipPath id="clip0_22_31">
<rect width="1440" height="1024" fill="white"/>
</clipPath>
</defs>
</svg>
